<?xml version="1.0" encoding="utf-8"?>
<!-- Generator: Adobe Illustrator 23.0.1, SVG Export Plug-In . SVG Version: 6.00 Build 0)  -->
<svg version="1.1" id="Layer_1" xmlns="http://www.w3.org/2000/svg" xmlns:xlink="http://www.w3.org/1999/xlink" x="0px" y="0px"
	 width="850px" height="120px" viewBox="0 0 850 120" style="enable-background:new 0 0 850 120;" xml:space="preserve">
<style type="text/css">
	.st0{fill:#FFFFFF;}
	.st1{fill:#B476E5;}
</style>
<g>
	<path class="st0" d="M170.4,16.8c9.5,0,17.7,1.9,24.5,5.8c6.7,3.8,12.1,9.5,15.5,16.4c3.5,7.1,5.2,15.4,5.2,25
		c0.1,6.6-0.9,13.1-2.9,19.3c-1.8,5.6-4.7,10.7-8.6,15.1c-3.9,4.3-8.7,7.6-14.1,9.7c-6.1,2.4-12.7,3.5-19.2,3.4
		c-6.6,0.1-13.1-1.1-19.3-3.5c-5.4-2.1-10.3-5.5-14.2-9.8c-3.9-4.4-6.8-9.6-8.6-15.2c-2-6.2-3-12.7-2.9-19.2
		c-0.1-6.6,1-13.1,3.1-19.4c1.9-5.6,4.9-10.7,8.8-15c3.9-4.2,8.7-7.4,14-9.5C157.6,17.8,164,16.7,170.4,16.8z M196.7,63.9
		c0.1-6-1-11.9-3.2-17.4c-1.9-4.6-5.1-8.5-9.3-11.2c-4.2-2.6-9-3.9-13.8-3.8c-3.5,0-7,0.7-10.3,2.1c-3.1,1.4-5.9,3.5-8.1,6.1
		c-2.5,3-4.3,6.5-5.4,10.2c-1.4,4.5-2,9.2-2,14c-0.1,4.8,0.6,9.5,2,14.1c1.1,3.8,3,7.4,5.6,10.5c2.3,2.7,5.1,4.8,8.3,6.2
		c7.6,3.2,16.2,2.6,23.3-1.5c4.2-2.6,7.5-6.5,9.5-11C195.6,77.3,196.7,71.2,196.7,63.9L196.7,63.9z"/>
	<path class="st0" d="M242.9,18.3h24.2c5.4-0.1,10.9,0.5,16.2,1.8c4.5,1.2,8.7,3.4,12.3,6.6c9.5,8.2,14.3,20.6,14.3,37.3
		c0,5.1-0.4,10.1-1.4,15.1c-0.9,4.3-2.4,8.4-4.4,12.3c-2,3.7-4.6,7-7.7,9.8c-2.4,2.2-5.1,4-8.1,5.3c-3,1.4-6.2,2.3-9.4,2.8
		c-3.8,0.6-7.5,0.8-11.3,0.8h-24.1c-3.4,0-5.9-0.5-7.6-1.5c-1.6-0.9-2.9-2.5-3.3-4.3c-0.6-2.4-0.8-4.8-0.8-7.2V29.7
		c0-4,0.9-6.9,2.7-8.7C236.1,19.2,238.9,18.3,242.9,18.3z M250.1,33.1v62.2h14.1c3.1,0,5.5-0.1,7.3-0.3c1.9-0.2,3.7-0.6,5.4-1.2
		c1.8-0.6,3.5-1.6,4.9-2.8c6.2-5.2,9.3-14.3,9.3-27.1c0-9-1.4-15.8-4.1-20.3c-2.7-4.5-6.1-7.4-10.1-8.6c-4.7-1.3-9.6-1.9-14.5-1.8
		L250.1,33.1z"/>
	<path class="st0" d="M386.6,32.7h-41.9v22.5h38.5c2.8,0,4.9,0.6,6.3,1.9c1.4,1.3,2.2,3.1,2.1,5c0.1,1.9-0.7,3.8-2.1,5.1
		c-1.4,1.3-3.5,2-6.4,2h-38.5v26.1H388c2.9,0,5.1,0.7,6.6,2c1.5,1.4,2.3,3.4,2.2,5.4c0.1,2-0.7,3.9-2.2,5.3c-1.5,1.4-3.7,2-6.6,2
		h-50.4c-4,0-7-0.9-8.7-2.7c-1.8-1.8-2.7-4.7-2.6-8.7V29.7c-0.1-2.2,0.3-4.5,1.2-6.5c0.7-1.6,2.1-3,3.7-3.7c2-0.8,4.3-1.2,6.5-1.2
		h49.1c3,0,5.1,0.7,6.6,2c1.4,1.3,2.2,3.2,2.1,5.2c0.1,2-0.7,3.9-2.1,5.2C391.7,32,389.5,32.7,386.6,32.7z"/>
	<path class="st0" d="M450.5,110h-27.9c-4,0-6.9-0.9-8.6-2.7c-1.7-1.8-2.6-4.7-2.6-8.6V30.1c0-4,0.9-6.9,2.6-8.7
		c1.8-1.8,4.6-2.6,8.6-2.6h29.6c3.8,0,7.6,0.2,11.3,0.8c3,0.5,5.9,1.5,8.6,3.1c2.2,1.3,4.1,3,5.7,4.9c3.3,3.9,5.1,8.9,5.1,14.1
		c0,9.1-4.6,15.8-13.7,20c12,3.8,18,11.2,18,22.3c0.1,4.9-1.3,9.6-3.9,13.7c-2.5,4-6.2,7.2-10.6,9c-3.1,1.3-6.3,2.1-9.5,2.5
		C458.9,109.8,454.7,110,450.5,110z M429.9,32.6v23.5h16.9c3.6,0.1,7.2-0.3,10.7-1.3c2.5-0.9,4.6-2.6,5.8-5c1-1.8,1.6-3.8,1.6-5.9
		c0-4.6-1.6-7.6-4.9-9.2c-3.3-1.5-8.3-2.3-15-2.3L429.9,32.6z M449.1,69.4h-19.2v26.6h19.9c12.5,0,18.7-4.5,18.7-13.5
		c0-4.6-1.6-7.9-4.9-10C460.4,70.5,455.5,69.4,449.1,69.4z"/>
	<path class="st0" d="M563.3,33h-41.6v22.4H560c2.8,0,4.9,0.6,6.3,1.9c1.4,1.3,2.2,3.1,2.1,5c0.1,1.9-0.7,3.8-2.1,5.1
		c-1.4,1.3-3.5,2-6.3,2h-38.3v26h43.1c2.9,0,5.1,0.7,6.6,2c1.5,1.4,2.3,3.4,2.2,5.4c0.1,2-0.7,3.9-2.2,5.3c-1.5,1.3-3.7,2-6.6,2
		h-50.2c-4,0-6.9-0.9-8.7-2.7c-1.8-1.8-2.6-4.7-2.6-8.6V30.1c-0.1-2.2,0.3-4.4,1.2-6.5c0.7-1.6,2.1-2.9,3.7-3.7
		c2-0.8,4.2-1.2,6.4-1.1h48.8c2.9,0,5.1,0.7,6.6,2c1.5,1.3,2.3,3.2,2.2,5.2c0.1,2-0.7,3.9-2.1,5.2C568.5,32.3,566.3,33,563.3,33z"/>
	<path class="st0" d="M646.6,99.6l-4.4-11.5h-37.1l-4.4,11.7c-1.7,4.6-3.2,7.7-4.4,9.2c-1.2,1.6-3.2,2.4-5.9,2.4
		c-2.3,0-4.5-0.9-6.2-2.6c-1.7-1.5-2.6-3.6-2.7-5.8c0-1.3,0.2-2.6,0.6-3.9c0.4-1.3,1.1-3.2,2.1-5.5l23.3-59.2l2.4-6.1
		c0.8-2.1,1.8-4.1,2.9-5.9c1.1-1.6,2.5-2.9,4.2-3.8c2-1,4.2-1.5,6.4-1.5c2.2-0.1,4.5,0.4,6.4,1.5c1.7,0.9,3.1,2.2,4.2,3.8
		c1.1,1.5,2,3.2,2.7,4.9c0.7,1.8,1.6,4.1,2.8,7.1l23.8,58.9c1.9,4.5,2.8,7.8,2.8,9.8c0,2.2-1,4.3-2.6,5.8c-1.7,1.7-4,2.7-6.4,2.6
		c-1.3,0-2.6-0.2-3.7-0.8c-1-0.5-1.9-1.2-2.6-2.1c-0.9-1.3-1.7-2.7-2.3-4.1C647.8,102.7,647.2,101,646.6,99.6z M610,74.3h27.3
		l-13.8-37.6L610,74.3z"/>
	<path class="st0" d="M704,28.2L739.5,82V27.7c0-3.5,0.8-6.2,2.3-7.9c1.5-1.8,3.8-2.7,6.1-2.6c2.4-0.1,4.7,0.9,6.3,2.6
		c1.5,1.8,2.3,4.4,2.3,7.9v71.7c0,8-3.3,12-10,12c-1.5,0-3-0.2-4.5-0.7c-1.4-0.5-2.7-1.3-3.7-2.3c-1.2-1.1-2.3-2.3-3.2-3.6
		c-1-1.4-2-2.8-2.9-4.3l-34.7-53.1v53.5c0,3.5-0.8,6.1-2.4,7.9c-1.6,1.8-3.9,2.7-6.2,2.7c-2.4,0.1-4.7-0.9-6.3-2.7
		c-1.6-1.8-2.4-4.4-2.4-7.8V30.6c-0.1-2.4,0.2-4.8,1-7c0.8-1.9,2.2-3.5,3.9-4.6c1.7-1.2,3.8-1.8,5.9-1.8c2.8-0.1,5.4,1,7.4,2.9
		c1,1.1,1.9,2.3,2.7,3.6C702,25.2,703,26.7,704,28.2z"/>
	<path class="st0" d="M846,82.6c0.1,5.3-1.4,10.5-4.3,14.9c-3.1,4.6-7.4,8.2-12.5,10.3c-5.5,2.5-12,3.7-19.5,3.7
		c-9,0-16.4-1.7-22.3-5.1c-4.1-2.4-7.6-5.8-10.1-9.8c-2.4-3.5-3.8-7.6-3.9-11.9c0-4.5,3.5-8.1,8-8.2c0.1,0,0.2,0,0.3,0
		c1.8,0,3.6,0.6,4.9,1.9c1.6,1.6,2.7,3.5,3.5,5.5c1,2.6,2.2,5,3.8,7.3c1.5,2.1,3.4,3.7,5.7,4.8c3,1.4,6.3,2,9.6,1.9
		c5.5,0,9.9-1.3,13.4-3.8c3.4-2.6,5.1-5.7,5.1-9.6c0.1-2.7-0.9-5.4-2.8-7.4c-2-2-4.5-3.5-7.2-4.3c-3.9-1.3-7.8-2.3-11.7-3.2
		c-5.7-1.2-11.2-3-16.5-5.4c-4.2-1.9-7.8-4.8-10.5-8.4c-2.6-3.5-3.9-7.9-3.9-13.2c-0.1-4.8,1.4-9.5,4.1-13.4c3-4.1,7.1-7.2,11.9-9
		c5.8-2.2,12.1-3.3,18.3-3.1c4.9-0.1,9.8,0.6,14.5,2.1c3.7,1.2,7.2,3.1,10.2,5.5c2.4,2,4.4,4.5,5.9,7.3c1.2,2.3,1.8,4.8,1.9,7.4
		c0,2.2-0.8,4.3-2.3,5.9c-1.4,1.7-3.6,2.7-5.8,2.6c-1.7,0.1-3.4-0.5-4.7-1.6c-1.4-1.5-2.7-3.3-3.6-5.2c-1.4-3.1-3.4-5.8-6-8.1
		c-2.3-1.9-6-2.9-11.2-2.9c-4.8,0-8.6,1-11.5,3.1c-2.9,2.1-4.4,4.6-4.4,7.6c0,1.7,0.5,3.4,1.5,4.7c1.1,1.4,2.5,2.6,4.1,3.4
		c1.7,0.9,3.5,1.7,5.3,2.2c1.8,0.5,4.7,1.3,8.8,2.4c4.7,1.1,9.4,2.4,14,4c3.8,1.3,7.4,3,10.6,5.3c2.9,2,5.3,4.7,6.9,7.8
		C845.3,74.5,846.2,78.5,846,82.6z"/>
	<path class="st1" d="M61.1,117.6c-10.6,0-21.1-0.3-31.7,0.1c-13.8,0.5-25-11.8-25.2-24.1C3.8,71.3,3.8,49,4.2,26.6
		C4.5,13.9,15.4,3.5,29,2.8c11.9-0.6,23.8-0.4,35.7-0.4c8.8,0,17.7-0.2,26.5,0.1C107.6,3,119,15.7,118.2,32
		c-0.2,3.6-1.4,5.4-5.2,5.2c-0.7,0-1.6,0.1-2.3,0c-2.9-0.1-6.4,0.6-8.3-0.9c-1.7-1.3-1.3-5.3-1.8-8c-1-5.5-4.3-8.6-9.9-8.6
		c-19.6-0.1-39.2-0.1-58.9,0c-6.4,0-10.4,3.8-10.4,10.2c-0.2,20.2-0.2,40.4-0.1,60.5c0,6.4,3.6,10.1,10,10.1
		c19.5,0.2,39,0.2,58.5,0.2c5.3,0,8.9-2.4,10.5-7.6c0.8-2.7,2.4-3.5,5.1-3.4c2.4,0.2,4.8,0,7.2,0c5,0,5.3,0.4,5,5.2
		c-0.6,11.1-11.4,21.8-22.6,22.4c-0.5,0-1.1,0.1-1.6,0.1L61.1,117.6L61.1,117.6z"/>
	<path class="st1" d="M60.2,34.4c5.5,0,11-0.3,16.4,0.1c7.3,0.5,11.6,6.5,9,12.7c-1,2.4-3.4,5.1-6,5.8c-1.9,0.6-3.9,1-5.9,1.1
		c-9.6,0.4-19.2,0-28.8,0.1c-3,0-4.4-0.8-4.3-4.1c0.2-4.1,0.2-8.3,0-12.4c-0.1-2.6,1-3.5,3.6-3.5"/>
	<path class="st1" d="M60.2,66.7c5.5,0,11-0.3,16.4,0.1c7.3,0.5,11.6,6.5,9,12.7c-1,2.4-3.4,5.1-6,5.8c-1.9,0.6-3.9,1-5.9,1.1
		c-9.6,0.4-19.2,0-28.8,0.1c-3,0-4.4-0.8-4.3-4.1c0.2-4.1,0.2-8.3,0-12.4c-0.1-2.6,1-3.5,3.6-3.4"/>
</g>
</svg>
