<?xml version="1.0" encoding="utf-8"?>
<!-- Generator: Adobe Illustrator 23.0.1, SVG Export Plug-In . SVG Version: 6.00 Build 0)  -->
<svg version="1.1" id="Layer_1" xmlns="http://www.w3.org/2000/svg" xmlns:xlink="http://www.w3.org/1999/xlink" x="0px" y="0px"
	 width="24px" height="30px" viewBox="0 0 24 30" style="enable-background:new 0 0 24 30;" xml:space="preserve">
<style type="text/css">
	.st0{fill:#B476E5;}
</style>
<g>
	<path class="st0" d="M12,26.8c-2.2,0-4.3-0.1-6.5,0c-2.8,0.1-5.1-2.4-5.2-4.9c-0.1-4.6-0.1-9.2,0-13.8c0.1-2.6,2.3-4.8,5.1-4.9
		c2.4-0.1,4.9-0.1,7.3-0.1c1.8,0,3.6,0,5.4,0c3.4,0.1,5.7,2.7,5.6,6.1c0,0.7-0.3,1.1-1.1,1.1c-0.1,0-0.3,0-0.5,0
		c-0.6,0-1.3,0.1-1.7-0.2c-0.3-0.3-0.3-1.1-0.4-1.7c-0.2-1.1-0.9-1.8-2-1.8c-4,0-8.1,0-12.1,0c-1.3,0-2.1,0.8-2.1,2.1
		c0,4.2,0,8.3,0,12.4c0,1.3,0.7,2.1,2.1,2.1c4,0,8,0,12,0c1.1,0,1.8-0.5,2.2-1.6c0.2-0.5,0.5-0.7,1-0.7c0.5,0,1,0,1.5,0
		c1,0,1.1,0.1,1,1.1c-0.1,2.3-2.3,4.5-4.6,4.6c-0.1,0-0.2,0-0.3,0L12,26.8L12,26.8z"/>
	<path class="st0" d="M11.8,9.7c1.1,0,2.3-0.1,3.4,0c1.5,0.1,2.4,1.3,1.8,2.6c-0.2,0.5-0.7,1-1.2,1.2c-0.4,0.1-0.8,0.2-1.2,0.2
		c-2,0.1-4,0-5.9,0c-0.6,0-0.9-0.2-0.9-0.8c0-0.8,0-1.7,0-2.6c0-0.5,0.2-0.7,0.7-0.7"/>
	<path class="st0" d="M11.8,16.4c1.1,0,2.3-0.1,3.4,0c1.5,0.1,2.4,1.3,1.8,2.6c-0.2,0.5-0.7,1-1.2,1.2c-0.4,0.1-0.8,0.2-1.2,0.2
		c-2,0.1-4,0-5.9,0c-0.6,0-0.9-0.2-0.9-0.8c0-0.8,0-1.7,0-2.6c0-0.5,0.2-0.7,0.7-0.7"/>
</g>
</svg>
